<?xml version="1.0" encoding="utf-8"?>
<!-- Generator: Adobe Illustrator 18.0.0, SVG Export Plug-In . SVG Version: 6.00 Build 0)  -->
<!DOCTYPE svg PUBLIC "-//W3C//DTD SVG 1.1//EN" "http://www.w3.org/Graphics/SVG/1.1/DTD/svg11.dtd">
<svg version="1.1" id="Layer_1" xmlns="http://www.w3.org/2000/svg" xmlns:xlink="http://www.w3.org/1999/xlink" x="0px" y="0px"
	 viewBox="0 0 709.2 151.8" xml:space="preserve">
<path fill="#fff"  d="M73.7,94.3c0,11-1.5,18.4-4.6,22.4c-3,4-8.5,5.9-16.3,5.9c-5.6,0-10-1.5-13-4.5c-3-3-4.8-7.4-5.2-13.3l14.5-5
	c0,2.8,0.3,4.7,0.9,5.9c0.6,1.2,1.6,1.7,2.9,1.7c1.6,0,2.7-1,3.1-2.9c0.5-1.9,0.7-5.3,0.7-10.1V36.4h17V94.3z"/>
<path fill="#fff"  d="M156.1,88.1c0,11.2-2.7,19.8-8.2,25.7c-5.5,5.9-13.3,8.9-23.5,8.9c-10.1,0-17.9-3.1-23.4-9.2c-5.5-6.1-8.3-14.6-8.3-25.4
	V36.4h17.5V91c0,5.4,1.2,9.6,3.6,12.4c2.4,2.8,6,4.2,10.6,4.2c4.8,0,8.4-1.4,10.7-4.1c2.3-2.7,3.5-6.9,3.5-12.5V36.4h17.5V88.1z"/>
<path fill="#fff"  d="M217.9,116.2c-4.9,4.3-11.9,6.5-21.1,6.5c-6.3,0-11.9-1.1-16.6-3.4c-4.7-2.2-8.1-5.4-10.2-9.4l10.7-11.7
	c1.2,2.9,3.3,5.3,6.3,7.1c3,1.8,6.3,2.8,9.8,2.8c3.6,0,6.3-0.8,8.1-2.4c1.8-1.6,2.8-4,2.8-7.1c0-2.7-1.2-5.1-3.7-7.3
	c-2.5-2.2-6.8-5-13.1-8.3c-6.8-3.7-11.7-7.4-14.5-11.2c-2.8-3.8-4.2-8.3-4.2-13.4c0-7.2,2.5-13,7.4-17.3c4.9-4.3,11.5-6.5,19.9-6.5
	c5.1,0,9.5,0.9,13.4,2.8c3.9,1.8,7.1,4.6,9.7,8.2l-10.4,11c-1.1-2.1-2.9-3.9-5.3-5.4c-2.4-1.4-5-2.1-7.6-2.1c-3,0-5.4,0.8-7.2,2.3
	c-1.8,1.5-2.7,3.4-2.7,5.6c0,4.5,4.1,8.9,12.3,13.2c1.5,0.8,2.7,1.4,3.5,1.8c7.2,3.9,12.3,7.8,15.4,11.6c3,3.9,4.6,8.5,4.6,13.9
	C225.3,105.6,222.8,111.8,217.9,116.2z"/>
<rect fill="#fff"  x="316.7" y="36.4" width="17" height="84.4"/>
<path fill="#fff"  d="M414.1,58.5c-3-2.5-6.2-4.5-9.8-5.9c-3.6-1.4-7.2-2-10.8-2c-8,0-14.5,2.5-19.3,7.7c-4.8,5.1-7.2,11.9-7.2,20.3
	c0,8.7,2.2,15.5,6.6,20.6c4.4,5.1,10.5,7.6,18.2,7.6c4.6,0,8.7-0.7,12.3-2.2c3.6-1.5,6.9-3.8,9.9-6.9v18.7
	c-2.3,1.7-5.8,3.2-10.3,4.5c-4.5,1.3-8.6,1.9-12.2,1.9c-13.1,0-23.4-4-30.9-12c-7.6-8-11.3-18.7-11.3-32.2
	c0-12.8,3.9-23.4,11.7-31.6c7.8-8.2,18.1-12.3,30.9-12.3c4.8,0,8.9,0.4,12.4,1.3c3.5,0.9,6.7,2.3,9.8,4.3V58.5z"/>
<polygon fill="#fff"  points="475.6,120.9 446.5,76.7 446.5,120.9 429.5,120.9 429.5,36.4 446.5,36.4 446.5,74.8 475.3,36.4 495.1,36.4 464.1,75
	496.1,120.9 "/>
<polygon fill="#fff"  points="550.9,51 524.6,51 524.6,70.7 550.9,70.7 550.9,85.3 524.6,85.3 524.6,106.3 550.9,106.3 550.9,120.9 507.3,120.9
	507.3,36.4 550.9,36.4 "/>
<polygon fill="#fff" points="612.1,51 595.7,51 595.7,120.9 578.7,120.9 578.7,51 562.3,51 562.3,36.4 612.1,36.4 "/>
<path fill="#fff" d="M667.5,116.2c-4.9,4.3-11.9,6.5-21.1,6.5c-6.3,0-11.9-1.1-16.6-3.4c-4.7-2.2-8.1-5.4-10.2-9.4l10.7-11.7
	c1.2,2.9,3.3,5.3,6.3,7.1c3,1.8,6.3,2.8,9.8,2.8c3.6,0,6.3-0.8,8.1-2.4c1.8-1.6,2.8-4,2.8-7c0-2.7-1.2-5.1-3.7-7.3
	c-2.5-2.2-6.8-5-13-8.3c-6.8-3.7-11.7-7.4-14.5-11.2c-2.8-3.8-4.2-8.3-4.2-13.4c0-7.2,2.4-13,7.4-17.3c4.9-4.3,11.5-6.5,19.9-6.5
	c5.1,0,9.5,0.9,13.4,2.8c3.9,1.8,7.1,4.6,9.7,8.2l-10.4,11c-1.1-2.2-2.9-3.9-5.3-5.4c-2.4-1.4-5-2.1-7.6-2.1c-3,0-5.4,0.8-7.1,2.3
	c-1.8,1.5-2.7,3.4-2.7,5.6c0,4.5,4.1,8.9,12.3,13.2c1.5,0.8,2.7,1.4,3.5,1.8c7.2,3.9,12.3,7.8,15.4,11.6c3,3.9,4.6,8.5,4.6,13.9
	C674.8,105.6,672.4,111.8,667.5,116.2z"/>
<polygon fill="#fff" points="219.2,0 219.2,20.6 252.6,20.6 252.6,152.1 283.8,152.1 283.8,20.6 317.2,20.6 317.2,0 "/>
</svg>
